<?xml version="1.0" encoding="UTF-8"?><svg id="Calque_2" xmlns="http://www.w3.org/2000/svg" viewBox="0 0 17.5 17.5"><defs><style>.cls-1{fill:#16171a;}</style></defs><g id="Calque_1-2"><path class="cls-1" d="M8.75,0C3.92,0,0,3.92,0,8.75s3.92,8.75,8.75,8.75,8.75-3.92,8.75-8.75S13.58,0,8.75,0Zm.61,12.57c-.07,.11-.16,.19-.26,.26-.11,.06-.22,.09-.36,.09-.19,0-.36-.07-.51-.21-.14-.14-.21-.31-.21-.51s.07-.36,.21-.51c.14-.14,.31-.21,.51-.21s.37,.07,.51,.21c.14,.14,.21,.31,.21,.51,0,.13-.03,.25-.09,.36Zm1.79-5.05c-.09,.24-.22,.45-.39,.64-.16,.19-.37,.35-.6,.49-.24,.15-.42,.3-.56,.46-.14,.16-.24,.36-.31,.58-.07,.22-.1,.49-.11,.82v.05h-.96v-.05c0-.51,.06-.91,.16-1.21,.1-.3,.24-.54,.43-.73,.19-.19,.41-.36,.68-.52,.16-.09,.29-.21,.42-.34,.13-.13,.23-.29,.3-.46,.07-.18,.11-.37,.11-.57,0-.26-.06-.49-.19-.68-.12-.19-.29-.34-.49-.44-.21-.11-.44-.16-.69-.16-.22,0-.42,.04-.63,.14-.2,.09-.37,.23-.51,.42-.14,.19-.21,.45-.24,.76h-1.01c.02-.45,.14-.84,.36-1.16,.21-.32,.5-.57,.85-.74s.74-.26,1.18-.26c.47,0,.88,.09,1.22,.28,.35,.19,.62,.44,.81,.77,.19,.32,.29,.69,.29,1.11,0,.29-.04,.56-.13,.79Z"/></g></svg>