<?xml version="1.0" encoding="UTF-8"?><svg id="Calque_2" xmlns="http://www.w3.org/2000/svg" xmlns:xlink="http://www.w3.org/1999/xlink" viewBox="0 0 108 25"><defs><style>.cls-1{fill:#16171a;}.cls-2{fill:url(#Dégradé_sans_nom_11);}</style><linearGradient id="Dégradé_sans_nom_11" x1="0" y1="12.5" x2="108" y2="12.5" gradientUnits="userSpaceOnUse"><stop offset="0" stop-color="#e8c589"/><stop offset=".33" stop-color="#e9c88f"/><stop offset=".79" stop-color="#ecd0a1"/><stop offset="1" stop-color="#efd6ac"/><stop offset="1" stop-color="#e8c68a"/></linearGradient></defs><g id="Calque_1-2"><g><rect class="cls-2" width="108" height="25" rx="8.69" ry="8.69"/><path id="Icon_awesome-plus-circle" class="cls-1" d="M16.38,4.38c-4.21,0-7.62,3.41-7.62,7.62s3.41,7.62,7.62,7.62,7.62-3.41,7.62-7.62h0c0-4.21-3.41-7.62-7.62-7.62,0,0,0,0,0,0Zm4.43,8.48c0,.2-.17,.37-.37,.37h-2.83v2.83c0,.2-.17,.37-.37,.37h-1.72c-.2,0-.37-.17-.37-.37v-2.83h-2.83c-.2,0-.37-.17-.37-.37v-1.72c0-.2,.17-.37,.37-.37h2.83v-2.83c0-.2,.17-.37,.37-.37h1.72c.2,0,.37,.17,.37,.37v2.83h2.83c.2,0,.37,.17,.37,.37v1.72Z"/></g></g></svg>