<?xml version="1.0" encoding="UTF-8"?><svg id="Calque_2" xmlns="http://www.w3.org/2000/svg" viewBox="0 0 19.83 18.42"><defs><style>.cls-1{fill:#e8c589;isolation:isolate;}</style></defs><g id="Calque_1-2"><path id="Icon_ionic-ios-star" class="cls-1" d="M19.08,6.38h-6.51L10.59,.47c-.14-.37-.55-.56-.92-.43-.2,.07-.35,.23-.43,.43l-1.98,5.91H.71C.32,6.38,0,6.69,0,7.08c0,.04,0,.08,.01,.12,.02,.2,.13,.39,.3,.5l5.35,3.77-2.05,5.97c-.1,.29,0,.61,.24,.8,.11,.1,.25,.16,.4,.17,.16-.01,.31-.07,.44-.16l5.22-3.72,5.22,3.72c.13,.09,.28,.15,.44,.16,.15-.01,.29-.07,.39-.17,.25-.18,.35-.51,.24-.8l-2.06-5.97,5.31-3.81,.13-.11c.13-.12,.21-.29,.23-.47-.02-.4-.35-.71-.75-.71Z"/></g></svg>