<?xml version="1.0" encoding="UTF-8"?><svg id="Calque_2" xmlns="http://www.w3.org/2000/svg" viewBox="0 0 16.68 16.68"><defs><style>.cls-1{fill:#16171a;}</style></defs><g id="Calque_1-2"><path id="Icon_awesome-info-circle" class="cls-1" d="M8.34,0C3.74,0,0,3.74,0,8.34s3.74,8.34,8.34,8.34,8.34-3.74,8.34-8.34h0C16.68,3.73,12.95,0,8.34,0Zm0,3.7c.78,0,1.41,.63,1.41,1.41s-.63,1.41-1.41,1.41-1.41-.63-1.41-1.41,.63-1.41,1.41-1.41h0Zm1.88,8.54c0,.22-.18,.4-.4,.4h-2.96c-.22,0-.4-.18-.4-.4h0v-.81c0-.22,.18-.4,.4-.4h.4v-2.16h-.4c-.22,0-.4-.18-.4-.4v-.8c0-.22,.18-.4,.4-.4h2.15c.22,0,.4,.18,.4,.4v3.37h.4c.22,0,.4,.18,.4,.4v.8Z"/></g></svg>