<?xml version="1.0" encoding="UTF-8"?><svg id="Calque_2" xmlns="http://www.w3.org/2000/svg" viewBox="0 0 16.25 16.25"><defs><style>.cls-1{fill:#16171a;}</style></defs><g id="Calque_1-2"><path id="Icon_awesome-plus-circle" class="cls-1" d="M8.12,0C3.64,0,0,3.64,0,8.12s3.64,8.12,8.12,8.12,8.12-3.64,8.12-8.12h0C16.25,3.64,12.61,0,8.13,0c0,0,0,0,0,0Zm4.72,9.04c0,.22-.18,.39-.39,.39h-3.01v3.01c0,.22-.18,.39-.39,.39h-1.83c-.22,0-.39-.18-.39-.39v-3.01H3.8c-.22,0-.39-.18-.39-.39v-1.83c0-.22,.18-.39,.39-.39h3.02V3.8c0-.22,.18-.39,.39-.39h1.83c.22,0,.39,.18,.39,.39v3.02h3.01c.22,0,.39,.18,.39,.39v1.83Z"/></g></svg>